TITLE ""
FILE "P1Q_t_1469-1477.mp3" MP3
  TRACK 01 AUDIO
    TITLE "P1Q_t_1469-1477_01"
    INDEX 01 00:00:00
  TRACK 02 AUDIO
    TITLE "P1Q_t_1469-1477_02"
    INDEX 01 00:01:45
  TRACK 03 AUDIO
    TITLE "P1Q_t_1469-1477_03"
    INDEX 01 00:01:65
  TRACK 04 AUDIO
    TITLE "P1Q_t_1469-1477_04"
    INDEX 01 00:04:69
  TRACK 05 AUDIO
    TITLE "P1Q_t_1469-1477_05"
    INDEX 01 00:05:13
  TRACK 06 AUDIO
    TITLE "P1Q_t_1469-1477_06"
    INDEX 01 00:09:33
  TRACK 07 AUDIO
    TITLE "P1Q_t_1469-1477_07"
    INDEX 01 00:10:03
  TRACK 08 AUDIO
    TITLE "P1Q_t_1469-1477_08"
    INDEX 01 00:11:18
  TRACK 09 AUDIO
    TITLE "P1Q_t_1469-1477_09"
    INDEX 01 00:11:36
  TRACK 10 AUDIO
    TITLE "P1Q_t_1469-1477_10"
    INDEX 01 00:12:37
  TRACK 11 AUDIO
    TITLE "P1Q_t_1469-1477_11"
    INDEX 01 00:12:55
  TRACK 12 AUDIO
    TITLE "P1Q_t_1469-1477_12"
    INDEX 01 00:17:26
  TRACK 13 AUDIO
    TITLE "P1Q_t_1469-1477_13"
    INDEX 01 00:17:71
  TRACK 14 AUDIO
    TITLE "P1Q_t_1469-1477_14"
    INDEX 01 00:19:21
  TRACK 15 AUDIO
    TITLE "P1Q_t_1469-1477_15"
    INDEX 01 00:19:66
  TRACK 16 AUDIO
    TITLE "P1Q_t_1469-1477_16"
    INDEX 01 00:21:03
  TRACK 17 AUDIO
    TITLE "P1Q_t_1469-1477_17"
    INDEX 01 00:21:26
  TRACK 18 AUDIO
    TITLE "P1Q_t_1469-1477_18"
    INDEX 01 00:26:21
  TRACK 19 AUDIO
    TITLE "P1Q_t_1469-1477_19"
    INDEX 01 00:26:41
  TRACK 20 AUDIO
    TITLE "P1Q_t_1469-1477_20"
    INDEX 01 00:32:36
  TRACK 21 AUDIO
    TITLE "P1Q_t_1469-1477_21"
    INDEX 01 00:33:08
  TRACK 22 AUDIO
    TITLE "P1Q_t_1469-1477_22"
    INDEX 01 00:34:17
  TRACK 23 AUDIO
    TITLE "P1Q_t_1469-1477_23"
    INDEX 01 00:34:37
  TRACK 24 AUDIO
    TITLE "P1Q_t_1469-1477_24"
    INDEX 01 00:39:40
  TRACK 25 AUDIO
    TITLE "P1Q_t_1469-1477_25"
    INDEX 01 00:39:59
  TRACK 26 AUDIO
    TITLE "P1Q_t_1469-1477_26"
    INDEX 01 00:43:40
  TRACK 27 AUDIO
    TITLE "P1Q_t_1469-1477_27"
    INDEX 01 00:44:10
  TRACK 28 AUDIO
    TITLE "P1Q_t_1469-1477_28"
    INDEX 01 00:45:36
  TRACK 29 AUDIO
    TITLE "P1Q_t_1469-1477_29"
    INDEX 01 00:45:58
  TRACK 30 AUDIO
    TITLE "P1Q_t_1469-1477_30"
    INDEX 01 00:48:33
  TRACK 31 AUDIO
    TITLE "P1Q_t_1469-1477_31"
    INDEX 01 00:48:50
  TRACK 32 AUDIO
    TITLE "P1Q_t_1469-1477_32"
    INDEX 01 00:52:40
  TRACK 33 AUDIO
    TITLE "P1Q_t_1469-1477_33"
    INDEX 01 00:53:10
  TRACK 34 AUDIO
    TITLE "P1Q_t_1469-1477_34"
    INDEX 01 00:54:31
  TRACK 35 AUDIO
    TITLE "P1Q_t_1469-1477_35"
    INDEX 01 00:54:53
  TRACK 36 AUDIO
    TITLE "P1Q_t_1469-1477_36"
    INDEX 01 00:57:08
  TRACK 37 AUDIO
    TITLE "P1Q_t_1469-1477_37"
    INDEX 01 00:57:30
  TRACK 38 AUDIO
    TITLE "P1Q_t_1469-1477_38"
    INDEX 01 01:01:12
  TRACK 39 AUDIO
    TITLE "P1Q_t_1469-1477_39"
    INDEX 01 01:01:57
  TRACK 40 AUDIO
    TITLE "P1Q_t_1469-1477_40"
    INDEX 01 01:02:62
  TRACK 41 AUDIO
    TITLE "P1Q_t_1469-1477_41"
    INDEX 01 01:03:09
  TRACK 42 AUDIO
    TITLE "P1Q_t_1469-1477_42"
    INDEX 01 01:06:01
  TRACK 43 AUDIO
    TITLE "P1Q_t_1469-1477_43"
    INDEX 01 01:06:21
  TRACK 44 AUDIO
    TITLE "P1Q_t_1469-1477_44"
    INDEX 01 01:10:11
  TRACK 45 AUDIO
    TITLE "P1Q_t_1469-1477_45"
    INDEX 01 01:10:56
  TRACK 46 AUDIO
    TITLE "P1Q_t_1469-1477_46"
    INDEX 01 01:11:73
  TRACK 47 AUDIO
    TITLE "P1Q_t_1469-1477_47"
    INDEX 01 01:12:18
  TRACK 48 AUDIO
    TITLE "P1Q_t_1469-1477_48"
    INDEX 01 01:15:71
  TRACK 49 AUDIO
    TITLE "P1Q_t_1469-1477_49"
    INDEX 01 01:16:15
  TRACK 50 AUDIO
    TITLE "P1Q_t_1469-1477_50"
    INDEX 01 01:20:60
  TRACK 51 AUDIO
    TITLE "P1Q_t_1469-1477_51"
    INDEX 01 01:21:36
  TRACK 52 AUDIO
    TITLE "P1Q_t_1469-1477_52"
    INDEX 01 01:22:63
  TRACK 53 AUDIO
    TITLE "P1Q_t_1469-1477_53"
    INDEX 01 01:23:10
  TRACK 54 AUDIO
    TITLE "P1Q_t_1469-1477_54"
    INDEX 01 01:24:68
  TRACK 55 AUDIO
    TITLE "P1Q_t_1469-1477_55"
    INDEX 01 01:25:12
  TRACK 56 AUDIO
    TITLE "P1Q_t_1469-1477_56"
    INDEX 01 01:30:06
